<svg xmlns="http://www.w3.org/2000/svg" viewBox="0 0 34.38 24.95"><defs><style>.cls-1,.cls-5{fill:none;}.cls-1,.cls-2,.cls-4{stroke:#010101;stroke-linecap:round;stroke-linejoin:round;stroke-width:0.25px;}.cls-2,.cls-3{fill:#1d1d1b;}.cls-4{fill:#fff;}</style></defs><g id="Réteg_2" data-name="Réteg 2"><g id="Réteg_1" data-name="Réteg 1"><g id="LINE"><line class="cls-1" x1="26.96" y1="9.53" x2="5.8" y2="21.75"/></g><g id="ELLIPSE"><ellipse class="cls-1" cx="21.39" cy="3.38" rx="0.31" ry="0.18"/></g><g id="ELLIPSE-2" data-name="ELLIPSE"><path class="cls-1" d="M28.27,7.55a2.3,2.3,0,0,1-1.06,1.83"/></g><g id="LINE-2" data-name="LINE"><line class="cls-1" x1="27.21" y1="9.48" x2="6.05" y2="21.7"/></g><g id="ELLIPSE-3" data-name="ELLIPSE"><path class="cls-1" d="M28.1,7.94a2,2,0,0,1-.89,1.54"/></g><g id="LINE-3" data-name="LINE"><line class="cls-1" x1="28.1" y1="3.79" x2="28.1" y2="7.94"/></g><g id="ELLIPSE-4" data-name="ELLIPSE"><path class="cls-1" d="M27.21,3.27c.49-.28.89,0,.89.52"/></g><g id="LINE-4" data-name="LINE"><line class="cls-1" x1="6.05" y1="15.49" x2="27.21" y2="3.27"/></g><g id="LINE-5" data-name="LINE"><path class="cls-2" d="M28,3,23.09.2a.74.74,0,0,0-.75.07L1.18,12.49A2.33,2.33,0,0,0,.12,14.32v4.15a.78.78,0,0,0,.31.69l4.94,2.73.6-.2c-.59.34-1,.27-1-.41V17.13A2.33,2.33,0,0,1,6.05,15.3L27.21,3.08c.59-.34,1.06-.06,1.06.61"/></g><g id="ELLIPSE-5" data-name="ELLIPSE"><path class="cls-1" d="M27.56,3.16a.19.19,0,0,1,.08,0"/></g><polygon class="cls-3" points="27.37 2.66 4.53 16.26 5.02 21.56 5.8 21.75 27.68 9.05 28.1 7.65 28.19 3.27 27.37 2.66"/><g id="LINE-6" data-name="LINE"><line class="cls-1" x1="27.64" y1="3.19" x2="27.58" y2="3.15"/></g><g id="ELLIPSE-6" data-name="ELLIPSE"><path class="cls-1" d="M27.51,3.16c.26,0,.42.26.42.6"/></g><g id="LINE-7" data-name="LINE"><line class="cls-1" x1="27.93" y1="3.76" x2="27.93" y2="7.92"/></g><g id="ELLIPSE-7" data-name="ELLIPSE"><path class="cls-1" d="M27.93,7.92a1.86,1.86,0,0,1-.85,1.46"/></g><g id="LINE-8" data-name="LINE"><line class="cls-1" x1="27.08" y1="9.38" x2="5.97" y2="21.58"/></g><g id="LINE-9" data-name="LINE"><line class="cls-1" x1="27.11" y1="8.39" x2="5.94" y2="20.61"/></g><g id="LINE-10" data-name="LINE"><line class="cls-1" x1="27.11" y1="4.24" x2="27.11" y2="8.39"/></g><g id="ELLIPSE-8" data-name="ELLIPSE"><path class="cls-1" d="M27.56,3.16a.19.19,0,0,1,.08,0"/></g><g id="LINE-11" data-name="LINE"><polyline class="cls-4" points="27.06 4.26 27.06 8.37 5.94 20.56 5.94 20.61 5.94 16.46 27.11 4.24"/></g><g id="LINE-12" data-name="LINE"><line class="cls-1" x1="27.11" y1="8.39" x2="27.06" y2="8.37"/></g><g id="LINE-13" data-name="LINE"><line class="cls-1" x1="27.68" y1="3.22" x2="27.64" y2="3.19"/></g><polygon class="cls-5" points="6.36 18.99 6.41 24.95 34.38 8.72 26.96 6.32 6.36 18.99"/></g></g></svg>