<?xml version="1.0" encoding="UTF-8"?>
<svg id="Réteg_2" xmlns="http://www.w3.org/2000/svg" version="1.1" viewBox="0 0 36.99 38.82">
  <!-- Generator: Adobe Illustrator 29.6.1, SVG Export Plug-In . SVG Version: 2.1.1 Build 9)  -->
  <defs>
    <style>
      .st0 {
        fill: #fff;
        stroke: #1d1d1b;
        stroke-miterlimit: 10;
      }
    </style>
  </defs>
  <g id="Réteg_1">
    <path class="st0" d="M33.78,17.78L18.5,3.34,3.22,17.78c-.38.35-.12.99.4.99h1.82c.32,0,.58.26.58.58v15.76c0,.32.26.58.58.58h7.99c.32,0,.58-.26.58-.58v-8.88c0-.32.26-.58.58-.58h5.59c.32,0,.58.26.58.58v8.88c0,.32.26.58.58.58h7.99c.32,0,.58-.26.58-.58v-15.76c0-.32.26-.58.58-.58h1.82c.52,0,.76-.64.4-.99h-.04Z"/>
  </g>
</svg>