<svg xmlns="http://www.w3.org/2000/svg" viewBox="0 0 24.61 25.14"><defs><style>.cls-1{fill:#1d1d1b;}.cls-1,.cls-4,.cls-5{stroke:#010101;stroke-linecap:round;stroke-linejoin:round;}.cls-1,.cls-4{stroke-width:0.25px;}.cls-2{fill:#fff;}.cls-3{fill:#575555;}.cls-4,.cls-5,.cls-6{fill:none;}</style></defs><g id="Réteg_2" data-name="Réteg 2"><g id="Réteg_1" data-name="Réteg 1"><g id="CIRCLE"><circle class="cls-1" cx="12.3" cy="12.3" r="10.4"/></g><g id="ARC"><path class="cls-1" d="M22,16.61a.58.58,0,0,0,.29.76h0a1,1,0,0,1,.61.89v5.78a1,1,0,0,1-1,1H2.67a1,1,0,0,1-1-1V18.27a1,1,0,0,1,.6-.89l-.1.21a.74.74,0,0,0,.41-1v0"/></g><circle class="cls-2" cx="12.3" cy="12.3" r="9.73"/><g id="CIRCLE-2" data-name="CIRCLE"><circle class="cls-3" cx="12.3" cy="12.3" r="5.93"/></g><g id="CIRCLE-3" data-name="CIRCLE"><circle class="cls-4" cx="12.3" cy="12.3" r="10.44"/></g><g id="CIRCLE-4" data-name="CIRCLE"><circle class="cls-4" cx="12.3" cy="12.3" r="5.78"/></g><g id="CIRCLE-5" data-name="CIRCLE"><circle class="cls-4" cx="21.74" cy="24.05" r="0.4"/></g><g id="CIRCLE-6" data-name="CIRCLE"><circle class="cls-4" cx="2.86" cy="24.05" r="0.4"/></g><g id="CIRCLE-7" data-name="CIRCLE"><circle class="cls-4" cx="2.86" cy="18.27" r="0.4"/></g><g id="CIRCLE-8" data-name="CIRCLE"><circle class="cls-4" cx="21.74" cy="18.27" r="0.4"/></g><g id="ARC-2" data-name="ARC"><path class="cls-4" d="M22,16.61a10.59,10.59,0,1,0-19.36,0"/></g><g id="CIRCLE-9" data-name="CIRCLE"><circle class="cls-4" cx="12.3" cy="12.3" r="6.45"/></g><g id="CIRCLE-10" data-name="CIRCLE"><circle class="cls-4" cx="12.3" cy="12.3" r="9.73"/></g><g id="CIRCLE-11" data-name="CIRCLE"><circle class="cls-4" cx="12.3" cy="12.3" r="5.97"/></g><g id="CIRCLE-12" data-name="CIRCLE"><circle class="cls-5" cx="12.3" cy="12.3" r="6.45"/></g><path class="cls-6" d="M12.3,0A12.31,12.31,0,1,0,24.61,12.3,12.3,12.3,0,0,0,12.3,0Zm0,21.16a8.86,8.86,0,1,1,8.86-8.86A8.86,8.86,0,0,1,12.3,21.16Z"/></g></g></svg>