<svg xmlns="http://www.w3.org/2000/svg" xmlns:xlink="http://www.w3.org/1999/xlink" viewBox="0 0 24.61 25.14"><defs><style>.cls-1{fill:#1d1d1b;}.cls-1,.cls-4,.cls-5{stroke:#010101;stroke-linecap:round;stroke-linejoin:round;}.cls-1,.cls-4{stroke-width:0.25px;}.cls-2{fill:#fff;}.cls-3{fill:#575555;}.cls-4,.cls-5,.cls-7{fill:none;}.cls-6{fill:url(#Névtelen_színátmenet_9);}</style><radialGradient id="Névtelen_színátmenet_9" cx="12.3" cy="12.3" r="12.3" gradientUnits="userSpaceOnUse"><stop offset="0.72" stop-color="#fff"/><stop offset="0.77" stop-color="#fcfcfc" stop-opacity="0.99"/><stop offset="0.8" stop-color="#f1f1f1" stop-opacity="0.95"/><stop offset="0.84" stop-color="#e0e0e0" stop-opacity="0.88"/><stop offset="0.87" stop-color="#c8c8c8" stop-opacity="0.78"/><stop offset="0.9" stop-color="#a8a8a8" stop-opacity="0.66"/><stop offset="0.93" stop-color="#818181" stop-opacity="0.51"/><stop offset="0.96" stop-color="#535353" stop-opacity="0.33"/><stop offset="0.98" stop-color="#202020" stop-opacity="0.12"/><stop offset="1" stop-opacity="0"/></radialGradient></defs><g id="Réteg_2" data-name="Réteg 2"><g id="Réteg_1" data-name="Réteg 1"><g id="CIRCLE"><circle class="cls-1" cx="12.3" cy="12.3" r="10.4"/></g><g id="ARC"><path class="cls-1" d="M22,16.61a.57.57,0,0,0,.3.76h0a1,1,0,0,1,.6.89v5.78a1,1,0,0,1-1,1H2.67a1,1,0,0,1-1-1V18.27a1,1,0,0,1,.6-.89l-.09.21a.74.74,0,0,0,.4-1v0"/></g><circle class="cls-2" cx="12.3" cy="12.3" r="9.73"/><g id="CIRCLE-2" data-name="CIRCLE"><circle class="cls-3" cx="12.3" cy="12.3" r="5.93"/></g><g id="CIRCLE-3" data-name="CIRCLE"><circle class="cls-4" cx="12.3" cy="12.3" r="10.44"/></g><g id="CIRCLE-4" data-name="CIRCLE"><circle class="cls-4" cx="12.3" cy="12.3" r="5.78"/></g><g id="CIRCLE-5" data-name="CIRCLE"><circle class="cls-4" cx="21.74" cy="24.05" r="0.4"/></g><g id="CIRCLE-6" data-name="CIRCLE"><circle class="cls-4" cx="2.86" cy="24.05" r="0.4"/></g><g id="CIRCLE-7" data-name="CIRCLE"><circle class="cls-4" cx="2.86" cy="18.27" r="0.4"/></g><g id="CIRCLE-8" data-name="CIRCLE"><circle class="cls-4" cx="21.74" cy="18.27" r="0.4"/></g><g id="ARC-2" data-name="ARC"><path class="cls-4" d="M22,16.61a10.59,10.59,0,1,0-19.36,0"/></g><g id="CIRCLE-9" data-name="CIRCLE"><circle class="cls-4" cx="12.3" cy="12.3" r="6.45"/></g><g id="CIRCLE-10" data-name="CIRCLE"><circle class="cls-4" cx="12.3" cy="12.3" r="9.73"/></g><g id="CIRCLE-11" data-name="CIRCLE"><circle class="cls-4" cx="12.3" cy="12.3" r="5.97"/></g><g id="CIRCLE-12" data-name="CIRCLE"><circle class="cls-5" cx="12.3" cy="12.3" r="6.45"/></g><path class="cls-6" d="M12.3,0A12.31,12.31,0,1,0,24.61,12.3,12.3,12.3,0,0,0,12.3,0Zm0,21.16a8.86,8.86,0,1,1,8.86-8.86A8.86,8.86,0,0,1,12.3,21.16Z"/><path class="cls-7" d="M12.3,0A12.31,12.31,0,1,0,24.61,12.3,12.3,12.3,0,0,0,12.3,0Zm0,21.16a8.86,8.86,0,1,1,8.86-8.86A8.86,8.86,0,0,1,12.3,21.16Z"/></g></g></svg>