<?xml version="1.0" encoding="UTF-8"?>
<svg id="Réteg_2" data-name="Réteg 2" xmlns="http://www.w3.org/2000/svg" viewBox="0 0 37.76 37.77">
  <defs>
    <style>
      .cls-1 {
        fill: #fff;
        stroke: #1d1d1b;
        stroke-miterlimit: 10;
      }
    </style>
  </defs>
  <g id="Réteg_1" data-name="Réteg 1">
    <g>
      <path class="cls-1" d="M24.16,31.94v-7.16c-5.58,4.76-14.11.2-13-7.14.72-4.73,5.58-7.62,10.13-6.29-1.33-2.56-1.38-5.59-.26-8.24.12-.29.79-1.41.81-1.55.04-.32-.31-.88-.63-.98-1.37.03-2.96-.16-4.31-.04-.56.05-.84.43-.92.97-.13.92-.09,1.99-.19,2.92-.02.23-.09.47-.12.7-1.49.39-2.91.95-4.22,1.76l-2.94-2.47c-.34-.23-.68-.26-1.04-.03-.32.21-2.79,2.69-3.03,3.03-.16.23-.26.46-.17.74.68,1.18,1.81,2.1,2.59,3.23-.24.66-.66,1.27-.94,1.92-.32.75-.56,1.54-.77,2.32-.03.04-.59.12-.71.13-.9.1-1.89.07-2.78.17-.59.06-1.05.3-1.11.94-.09.95-.11,3.17,0,4.1.06.53.55.79,1.03.85.91.11,1.94.07,2.86.17.12.01.68.09.71.13.22.78.45,1.58.77,2.32.14.33.96,1.77.94,1.92-.78,1.13-1.91,2.05-2.59,3.23-.08.26,0,.54.17.74l3.08,3.06c.32.18.63.16.94-.03l2.78-2.38.31-.07c1.29.79,2.69,1.32,4.14,1.72.2,1.35.09,2.8.43,4.11.22.3.38.43.76.47,1.32.12,2.83-.09,4.17,0,.43-.11.67-.46.75-.89.16-.93.1-2.04.2-2.99.02-.23.09-.47.12-.7l2.01-.69ZM26.78,8.41V.75l-.19-.11c-4.42,2.41-5.06,8.55-1.2,11.82.24.2,1.34.87,1.38,1l.02,20.93c.64,3.69,5.73,3.8,6.5.14l.04-21c0-.09.05-.15.12-.21.26-.25.95-.58,1.32-.89,3.82-3.28,3.15-9.39-1.24-11.78l-.19.11v7.66l-3.3,1.29-3.25-1.29Z"/>
      <path class="cls-1" d="M24.16,31.94l-2.01.69c-.03.23-.09.47-.12.7-.1.95-.04,2.07-.2,2.99-.07.43-.31.79-.75.89-1.34-.09-2.85.13-4.17,0-.38-.03-.54-.16-.76-.47-.34-1.31-.23-2.76-.43-4.11-1.45-.4-2.86-.93-4.14-1.72l-.31.07-2.78,2.38c-.31.2-.62.21-.94.03l-3.08-3.06c-.17-.2-.25-.49-.17-.74.68-1.18,1.81-2.1,2.59-3.23.02-.16-.8-1.6-.94-1.92-.32-.75-.55-1.54-.77-2.32-.03-.04-.59-.12-.71-.13-.92-.1-1.94-.07-2.86-.17-.49-.06-.97-.31-1.03-.85-.11-.93-.09-3.15,0-4.1.06-.64.52-.87,1.11-.94.89-.1,1.88-.07,2.78-.17.12-.01.68-.09.71-.13.21-.79.45-1.57.77-2.32.28-.66.7-1.27.94-1.92-.78-1.13-1.91-2.05-2.59-3.23-.09-.28,0-.52.17-.74.24-.34,2.71-2.82,3.03-3.03.35-.23.69-.2,1.04.03l2.94,2.47c1.31-.81,2.73-1.37,4.22-1.76.03-.23.09-.47.12-.7.1-.94.05-2,.19-2.92.08-.54.35-.92.92-.97,1.35-.12,2.93.07,4.31.04.32.1.67.65.63.98-.02.14-.69,1.26-.81,1.55-1.12,2.65-1.07,5.68.26,8.24-4.55-1.34-9.41,1.56-10.13,6.29-1.12,7.34,7.41,11.9,13,7.14v7.16Z"/>
      <path class="cls-1" d="M26.78,8.41l3.25,1.29,3.3-1.29V.75l.19-.11c4.39,2.4,5.06,8.5,1.24,11.78-.37.32-1.06.64-1.32.89-.06.06-.11.12-.12.21l-.04,21c-.78,3.67-5.86,3.55-6.5-.14l-.02-20.93c-.04-.12-1.14-.8-1.38-1-3.86-3.27-3.22-9.42,1.2-11.82l.19.11v7.66Z"/>
    </g>
  </g>
</svg>