<svg xmlns="http://www.w3.org/2000/svg" viewBox="0 0 24.61 24.61"><defs><style>.cls-1{fill:none;}.cls-2{fill:#ededed;}.cls-2,.cls-3{stroke:#1d1d1b;stroke-miterlimit:10;}.cls-3{fill:#fff;}</style></defs><g id="Réteg_2" data-name="Réteg 2"><g id="Réteg_1" data-name="Réteg 1"><path class="cls-1" d="M12.3,0A12.31,12.31,0,1,0,24.61,12.3,12.3,12.3,0,0,0,12.3,0Zm0,21.16a8.86,8.86,0,1,1,8.86-8.86A8.86,8.86,0,0,1,12.3,21.16Z"/><path class="cls-2" d="M12.3,3.6A8.7,8.7,0,1,0,21,12.3,8.71,8.71,0,0,0,12.3,3.6Zm0,11.64a2.94,2.94,0,1,1,2.94-2.94A2.94,2.94,0,0,1,12.3,15.24Z"/><path class="cls-3" d="M12.3,3.6A8.7,8.7,0,1,0,21,12.3,8.71,8.71,0,0,0,12.3,3.6Zm0,11.64a2.94,2.94,0,1,1,2.94-2.94A2.94,2.94,0,0,1,12.3,15.24Z"/></g></g></svg>