<svg xmlns="http://www.w3.org/2000/svg" xmlns:xlink="http://www.w3.org/1999/xlink" viewBox="0 0 24.61 24.61"><defs><style>.cls-1{fill:none;}.cls-2{fill:#ededed;}.cls-2,.cls-3{stroke:#1d1d1b;stroke-miterlimit:10;}.cls-3{fill:#fff;}.cls-4{fill:url(#Névtelen_színátmenet_9);}.cls-5{fill:url(#Névtelen_színátmenet_3);}</style><radialGradient id="Névtelen_színátmenet_9" cx="12.3" cy="12.3" r="4.01" gradientUnits="userSpaceOnUse"><stop offset="0.72" stop-color="#fff"/><stop offset="0.77" stop-color="#fcfcfc" stop-opacity="0.99"/><stop offset="0.8" stop-color="#f1f1f1" stop-opacity="0.95"/><stop offset="0.84" stop-color="#e0e0e0" stop-opacity="0.88"/><stop offset="0.87" stop-color="#c8c8c8" stop-opacity="0.78"/><stop offset="0.9" stop-color="#a8a8a8" stop-opacity="0.66"/><stop offset="0.93" stop-color="#818181" stop-opacity="0.51"/><stop offset="0.96" stop-color="#535353" stop-opacity="0.33"/><stop offset="0.98" stop-color="#202020" stop-opacity="0.12"/><stop offset="1" stop-opacity="0"/></radialGradient><radialGradient id="Névtelen_színátmenet_3" cx="12.3" cy="12.3" r="12.17" gradientUnits="userSpaceOnUse"><stop offset="0.53" stop-color="#fff"/><stop offset="0.6" stop-color="#fcfcfc" stop-opacity="0.99"/><stop offset="0.67" stop-color="#f1f1f1" stop-opacity="0.95"/><stop offset="0.72" stop-color="#e0e0e0" stop-opacity="0.88"/><stop offset="0.78" stop-color="#c8c8c8" stop-opacity="0.78"/><stop offset="0.83" stop-color="#a8a8a8" stop-opacity="0.66"/><stop offset="0.88" stop-color="#818181" stop-opacity="0.51"/><stop offset="0.93" stop-color="#535353" stop-opacity="0.33"/><stop offset="0.97" stop-color="#202020" stop-opacity="0.12"/><stop offset="1" stop-opacity="0"/></radialGradient></defs><g id="Réteg_2" data-name="Réteg 2"><g id="Réteg_1" data-name="Réteg 1"><path class="cls-1" d="M12.3,0A12.31,12.31,0,1,0,24.61,12.3,12.3,12.3,0,0,0,12.3,0Zm0,21.16a8.86,8.86,0,1,1,8.86-8.86A8.86,8.86,0,0,1,12.3,21.16Z"/><path class="cls-2" d="M12.3,3.6A8.7,8.7,0,1,0,21,12.3,8.71,8.71,0,0,0,12.3,3.6Zm0,11.64a2.94,2.94,0,1,1,2.94-2.94A2.94,2.94,0,0,1,12.3,15.24Z"/><path class="cls-3" d="M12.3,3.6A8.7,8.7,0,1,0,21,12.3,8.71,8.71,0,0,0,12.3,3.6Zm0,11.64a2.94,2.94,0,1,1,2.94-2.94A2.94,2.94,0,0,1,12.3,15.24Z"/><path class="cls-4" d="M12.3,8.3a4,4,0,1,0,4,4A4,4,0,0,0,12.3,8.3Zm0,6.89a2.89,2.89,0,1,1,2.89-2.89A2.88,2.88,0,0,1,12.3,15.19Z"/><path class="cls-5" d="M12.3,1.25A11.05,11.05,0,1,0,23.35,12.3,11.05,11.05,0,0,0,12.3,1.25Zm0,19a8,8,0,1,1,8-8A8,8,0,0,1,12.3,20.26Z"/></g></g></svg>